<svg xmlns="http://www.w3.org/2000/svg" xmlns:xlink="http://www.w3.org/1999/xlink" width="2148" height="2114.399" viewBox="0 0 2148 2114.399">
  <defs>
    <clipPath id="clip-path">
      <rect width="80.137" height="20.755" fill="none"/>
    </clipPath>
    <clipPath id="clip-path-3">
      <rect width="79.137" height="20.755" fill="none"/>
    </clipPath>
    <clipPath id="clip-path-4">
      <rect width="79.603" height="21.17" fill="none"/>
    </clipPath>
    <clipPath id="clip-path-5">
      <rect width="76.603" height="21.17" fill="none"/>
    </clipPath>
  </defs>
  <g id="Group_124" data-name="Group 124" transform="translate(108 1)">
    <g id="Group_122" data-name="Group 122" transform="translate(-1094 477)" opacity="0.66">
      <g id="Ellipse_19" data-name="Ellipse 19" transform="translate(1700 657)" fill="#fff" stroke="#fdddc5" stroke-width="37">
        <circle cx="125" cy="125" r="125" stroke="none"/>
        <circle cx="125" cy="125" r="106.5" fill="none"/>
      </g>
      <g id="Ellipse_20" data-name="Ellipse 20" transform="translate(1733 707)" fill="#fff" stroke="#fdddc5" stroke-width="30">
        <circle cx="75" cy="75" r="75" stroke="none"/>
        <circle cx="75" cy="75" r="60" fill="none"/>
      </g>
    </g>
    <path id="Path_31" data-name="Path 31" d="M19420-1199V42.223s77.773-36.408,141.156-122.23,42.047-134.524,112.385-221.06c46.6-54.583,270.8-141.06,334.412-201.956,114.6-101.424,187.107-285.38,245.391-334.7,101.771-97.237,285.582-113.155,349.693-168.282S20756.1-1199,20756.1-1199Z" transform="translate(-19420 1199)" fill="rgba(253,221,197,0)" stroke="#fdba13" stroke-width="2" stroke-dasharray="9"/>
    <path id="Path_21" data-name="Path 21" d="M19420-1199V20.765s76.1-35.778,138.113-120.117,41.139-132.2,109.959-217.238c45.594-53.639,264.961-138.621,327.2-198.464,112.129-99.67,183.072-280.446,240.1-328.917,99.576-95.556,279.422-111.2,342.15-165.373S20727.279-1199,20727.279-1199Z" transform="translate(-19420 1199)" fill="#fdddc5" opacity="0.66"/>
    <g id="Ellipse_22" data-name="Ellipse 22" transform="translate(-108 1558)" fill="rgba(253,221,197,0)" stroke="#fdba13" stroke-width="3" stroke-dasharray="23">
      <circle cx="227" cy="227" r="227" stroke="none"/>
      <circle cx="227" cy="227" r="225.5" fill="none"/>
    </g>
    <g id="Rectangle_662" data-name="Rectangle 662" transform="matrix(0.545, -0.839, 0.839, 0.545, 1568.77, 2060.569)" fill="none" stroke="#fdddc5" stroke-width="4">
      <rect width="97" height="97" stroke="none"/>
      <rect x="2" y="2" width="93" height="93" fill="none"/>
    </g>
    <g id="Rectangle_663" data-name="Rectangle 663" transform="matrix(0.545, -0.839, 0.839, 0.545, 1659.986, 1735.664)" fill="rgba(253,221,197,0)" stroke="#fdddc5" stroke-width="4">
      <rect width="29" height="29" stroke="none"/>
      <rect x="2" y="2" width="25" height="25" fill="none"/>
    </g>
    <path id="Path_23" data-name="Path 23" d="M19889.063,396.133V754.911" transform="matrix(0.788, -0.616, 0.616, 0.788, -14217.565, 13283.863)" fill="none" stroke="#fdba13" stroke-width="5" stroke-dasharray="22"/>
    <path id="Path_24" data-name="Path 24" d="M19889.063,396.133V791.216" transform="matrix(0.788, -0.616, 0.616, 0.788, -14239.917, 13191.303)" fill="none" stroke="#fdddc5" stroke-width="7"/>
    <g id="Repeat_Grid_3" data-name="Repeat Grid 3" transform="translate(194.934 2077.982)" clip-path="url(#clip-path)">
      <g transform="translate(-194.933 -2077.982)">
        <path id="Path_25" data-name="Path 25" d="M0,23.992,0,0" transform="matrix(-0.788, -0.616, 0.616, -0.788, 196.115, 2097.812)" fill="none" stroke="#fdddc5" stroke-linecap="round" stroke-width="7"/>
      </g>
      <g transform="translate(-174.933 -2077.982)">
        <path id="Path_25-2" data-name="Path 25" d="M0,23.992,0,0" transform="matrix(-0.788, -0.616, 0.616, -0.788, 196.115, 2097.812)" fill="none" stroke="#fdddc5" stroke-linecap="round" stroke-width="7"/>
      </g>
      <g transform="translate(-154.933 -2077.982)">
        <path id="Path_25-3" data-name="Path 25" d="M0,23.992,0,0" transform="matrix(-0.788, -0.616, 0.616, -0.788, 196.115, 2097.812)" fill="none" stroke="#fdddc5" stroke-linecap="round" stroke-width="7"/>
      </g>
      <g transform="translate(-134.933 -2077.982)">
        <path id="Path_25-4" data-name="Path 25" d="M0,23.992,0,0" transform="matrix(-0.788, -0.616, 0.616, -0.788, 196.115, 2097.812)" fill="none" stroke="#fdddc5" stroke-linecap="round" stroke-width="7"/>
      </g>
      <g transform="translate(-114.933 -2077.982)">
        <path id="Path_25-5" data-name="Path 25" d="M0,23.992,0,0" transform="matrix(-0.788, -0.616, 0.616, -0.788, 196.115, 2097.812)" fill="none" stroke="#fdddc5" stroke-linecap="round" stroke-width="7"/>
      </g>
    </g>
    <g id="Repeat_Grid_4" data-name="Repeat Grid 4" transform="translate(743 976.982)" clip-path="url(#clip-path)">
      <g transform="translate(-194.933 -2077.982)">
        <path id="Path_25-6" data-name="Path 25" d="M0,23.992,0,0" transform="matrix(-0.788, -0.616, 0.616, -0.788, 196.115, 2097.812)" fill="none" stroke="#fdddc5" stroke-linecap="round" stroke-width="4"/>
      </g>
      <g transform="translate(-174.933 -2077.982)">
        <path id="Path_25-7" data-name="Path 25" d="M0,23.992,0,0" transform="matrix(-0.788, -0.616, 0.616, -0.788, 196.115, 2097.812)" fill="none" stroke="#fdddc5" stroke-linecap="round" stroke-width="4"/>
      </g>
      <g transform="translate(-154.933 -2077.982)">
        <path id="Path_25-8" data-name="Path 25" d="M0,23.992,0,0" transform="matrix(-0.788, -0.616, 0.616, -0.788, 196.115, 2097.812)" fill="none" stroke="#fdddc5" stroke-linecap="round" stroke-width="4"/>
      </g>
      <g transform="translate(-134.933 -2077.982)">
        <path id="Path_25-9" data-name="Path 25" d="M0,23.992,0,0" transform="matrix(-0.788, -0.616, 0.616, -0.788, 196.115, 2097.812)" fill="none" stroke="#fdddc5" stroke-linecap="round" stroke-width="4"/>
      </g>
      <g transform="translate(-114.933 -2077.982)">
        <path id="Path_25-10" data-name="Path 25" d="M0,23.992,0,0" transform="matrix(-0.788, -0.616, 0.616, -0.788, 196.115, 2097.812)" fill="none" stroke="#fdddc5" stroke-linecap="round" stroke-width="4"/>
      </g>
    </g>
    <g id="Group_121" data-name="Group 121" transform="translate(90 2)" opacity="0.66">
      <g id="Ellipse_19-2" data-name="Ellipse 19" transform="translate(1700 657)" fill="#fff" stroke="#fdddc5" stroke-width="25">
        <circle cx="125" cy="125" r="125" stroke="none"/>
        <circle cx="125" cy="125" r="112.5" fill="none"/>
      </g>
      <g id="Ellipse_20-2" data-name="Ellipse 20" transform="translate(1750 707)" fill="#fff" stroke="#fdddc5" stroke-width="30">
        <circle cx="75" cy="75" r="75" stroke="none"/>
        <circle cx="75" cy="75" r="60" fill="none"/>
      </g>
    </g>
    <g id="Rectangle_664" data-name="Rectangle 664" transform="matrix(0.545, -0.839, 0.839, 0.545, 1616.986, 159.263)" fill="rgba(253,221,197,0)" stroke="#fdddc5" stroke-width="4">
      <rect width="29" height="29" stroke="none"/>
      <rect x="2" y="2" width="25" height="25" fill="none"/>
    </g>
    <g id="Rectangle_665" data-name="Rectangle 665" transform="matrix(0.545, -0.839, 0.839, 0.545, 1721.986, 243.263)" fill="rgba(253,221,197,0)" stroke="#fdddc5" stroke-width="4">
      <rect width="47" height="47" stroke="none"/>
      <rect x="2" y="2" width="43" height="43" fill="none"/>
    </g>
    <rect id="Rectangle_667" data-name="Rectangle 667" width="24" height="24" rx="12" transform="matrix(0.545, -0.839, 0.839, 0.545, 1790, 121.871)" fill="#fdddc5"/>
    <g id="Repeat_Grid_5" data-name="Repeat Grid 5" transform="translate(829.934 200.982)" clip-path="url(#clip-path-3)">
      <g transform="translate(-194.933 -2077.982)">
        <path id="Path_25-11" data-name="Path 25" d="M0,23.992,0,0" transform="matrix(-0.788, -0.616, 0.616, -0.788, 196.115, 2097.812)" fill="none" stroke="#fff" stroke-linecap="round" stroke-width="7"/>
      </g>
      <g transform="translate(-174.933 -2077.982)">
        <path id="Path_25-12" data-name="Path 25" d="M0,23.992,0,0" transform="matrix(-0.788, -0.616, 0.616, -0.788, 196.115, 2097.812)" fill="none" stroke="#fff" stroke-linecap="round" stroke-width="7"/>
      </g>
      <g transform="translate(-154.933 -2077.982)">
        <path id="Path_25-13" data-name="Path 25" d="M0,23.992,0,0" transform="matrix(-0.788, -0.616, 0.616, -0.788, 196.115, 2097.812)" fill="none" stroke="#fff" stroke-linecap="round" stroke-width="7"/>
      </g>
      <g transform="translate(-134.933 -2077.982)">
        <path id="Path_25-14" data-name="Path 25" d="M0,23.992,0,0" transform="matrix(-0.788, -0.616, 0.616, -0.788, 196.115, 2097.812)" fill="none" stroke="#fff" stroke-linecap="round" stroke-width="7"/>
      </g>
    </g>
    <rect id="Rectangle_668" data-name="Rectangle 668" width="24" height="24" rx="12" transform="matrix(0.545, -0.839, 0.839, 0.545, 102, 121.871)" fill="#fff"/>
    <g id="Rectangle_669" data-name="Rectangle 669" transform="matrix(0.545, -0.839, 0.839, 0.545, 61, 539.417)" fill="rgba(253,221,197,0)" stroke="#fff" stroke-width="4">
      <rect width="47" height="47" stroke="none"/>
      <rect x="2" y="2" width="43" height="43" fill="none"/>
    </g>
    <g id="Rectangle_670" data-name="Rectangle 670" transform="matrix(0.545, -0.839, 0.839, 0.545, 1712.994, 245.175)" fill="rgba(253,221,197,0)" stroke="#fdba13" stroke-width="2" stroke-dasharray="7">
      <rect width="60" height="60" stroke="none"/>
      <rect x="1" y="1" width="58" height="58" fill="none"/>
    </g>
    <g id="Repeat_Grid_6" data-name="Repeat Grid 6" transform="translate(834.342 205.69)" clip-path="url(#clip-path-4)">
      <g transform="translate(-834.342 -205.69)">
        <path id="Path_30" data-name="Path 30" d="M12789.538,200.982l-14.79,20.586" transform="translate(-11940 5)" fill="none" stroke="#fdba13" stroke-width="1" stroke-dasharray="4"/>
      </g>
      <g transform="translate(-813.342 -205.69)">
        <path id="Path_30-2" data-name="Path 30" d="M12789.538,200.982l-14.79,20.586" transform="translate(-11940 5)" fill="none" stroke="#fdba13" stroke-width="1" stroke-dasharray="4"/>
      </g>
      <g transform="translate(-792.342 -205.69)">
        <path id="Path_30-3" data-name="Path 30" d="M12789.538,200.982l-14.79,20.586" transform="translate(-11940 5)" fill="none" stroke="#fdba13" stroke-width="1" stroke-dasharray="4"/>
      </g>
      <g transform="translate(-771.342 -205.69)">
        <path id="Path_30-4" data-name="Path 30" d="M12789.538,200.982l-14.79,20.586" transform="translate(-11940 5)" fill="none" stroke="#fdba13" stroke-width="1" stroke-dasharray="4"/>
      </g>
    </g>
    <g id="Rectangle_671" data-name="Rectangle 671" transform="matrix(0.545, -0.839, 0.839, 0.545, 97.851, 122.753)" fill="rgba(255,255,255,0)" stroke="#fdba13" stroke-width="1" stroke-dasharray="4">
      <rect width="30" height="30" rx="15" stroke="none"/>
      <rect x="0.5" y="0.5" width="29" height="29" rx="14.5" fill="none"/>
    </g>
    <g id="Repeat_Grid_7" data-name="Repeat Grid 7" transform="translate(753.342 969.69)" clip-path="url(#clip-path-5)">
      <g transform="translate(-834.342 -205.69)">
        <path id="Path_30-5" data-name="Path 30" d="M12789.538,200.982l-14.79,20.586" transform="translate(-11940 5)" fill="none" stroke="#fdba13" stroke-width="1" stroke-dasharray="4"/>
      </g>
      <g transform="translate(-814.342 -205.69)">
        <path id="Path_30-6" data-name="Path 30" d="M12789.538,200.982l-14.79,20.586" transform="translate(-11940 5)" fill="none" stroke="#fdba13" stroke-width="1" stroke-dasharray="4"/>
      </g>
      <g transform="translate(-794.342 -205.69)">
        <path id="Path_30-7" data-name="Path 30" d="M12789.538,200.982l-14.79,20.586" transform="translate(-11940 5)" fill="none" stroke="#fdba13" stroke-width="1" stroke-dasharray="4"/>
      </g>
      <g transform="translate(-774.342 -205.69)">
        <path id="Path_30-8" data-name="Path 30" d="M12789.538,200.982l-14.79,20.586" transform="translate(-11940 5)" fill="none" stroke="#fdba13" stroke-width="1" stroke-dasharray="4"/>
      </g>
    </g>
    <g id="Rectangle_673" data-name="Rectangle 673" transform="matrix(0.545, -0.839, 0.839, 0.545, 1628.537, 312.263)" fill="rgba(253,221,197,0)" stroke="#fdba13" stroke-width="1" stroke-dasharray="5">
      <rect width="18" height="18" rx="9" stroke="none"/>
      <rect x="0.5" y="0.5" width="17" height="17" rx="8.5" fill="none"/>
    </g>
    <rect id="Rectangle_672" data-name="Rectangle 672" width="18" height="18" rx="9" transform="matrix(0.545, -0.839, 0.839, 0.545, 1632.986, 313.263)" fill="#fdddc5"/>
    <g id="Rectangle_674" data-name="Rectangle 674" transform="matrix(0.545, -0.839, 0.839, 0.545, 61, 513.417)" fill="rgba(253,221,197,0)" stroke="#fdba13" stroke-width="4" stroke-dasharray="10">
      <rect width="47" height="47" stroke="none"/>
      <rect x="2" y="2" width="43" height="43" fill="none"/>
    </g>
  </g>
</svg>
