<svg id="Tab_4" data-name="Tab 4" xmlns="http://www.w3.org/2000/svg" width="56" height="37.875" viewBox="0 0 56 37.875">
  <text id="Label" transform="translate(0 23.875)" font-size="10" font-family="Muli-Bold, Muli" font-weight="700" letter-spacing="-0.024em"><tspan x="17.532" y="10">Blog</tspan></text>
  <g id="Component_26_2" data-name="Component 26 – 2" transform="translate(16.5)">
    <g id="Group_96" data-name="Group 96" transform="translate(-332 -69)">
      <rect id="Rectangle_103" data-name="Rectangle 103" width="24" height="24" rx="12" transform="translate(332 69)" fill="#3e3e70" opacity="0"/>
      <path id="blogging" d="M14.518.023H1.927A1.99,1.99,0,0,0,0,2.066v11.3a2.653,2.653,0,0,0,2.57,2.724H9.828a.682.682,0,0,0,0-1.362H2.57A1.327,1.327,0,0,1,1.285,13.37V4.143H15.16v6.265a.643.643,0,1,0,1.285,0V2.066A1.99,1.99,0,0,0,14.518.023Zm-2.6,1.362a.663.663,0,0,1,.642.681.643.643,0,1,1-1.285,0A.663.663,0,0,1,11.916,1.385Zm3.212.681a.643.643,0,1,1-1.285,0,.643.643,0,1,1,1.285,0Zm-13.843,0a.663.663,0,0,1,.642-.681H10.1a2.154,2.154,0,0,0,.012,1.4H1.285ZM12.362,9.549a.637.637,0,0,0-.268-.171L9.565,8.564a.617.617,0,0,0-.635.164.709.709,0,0,0-.17.669l.718,2.748a.69.69,0,0,0,.164.3l3.513,3.731a1.853,1.853,0,0,0,2.725,0,2.133,2.133,0,0,0,0-2.888Zm-2.052.678,1.257.4,2.374,2.522-.909.963L10.671,11.61Zm4.662,4.986a.617.617,0,0,1-.908,0l-.124-.132.908-.963.124.132a.711.711,0,0,1,0,.963Zm0,0" transform="translate(335.778 72.602)"/>
    </g>
  </g>
</svg>
