<svg xmlns="http://www.w3.org/2000/svg" width="40" height="56" viewBox="0 0 40 56">
  <g id="ico_24_other_book" data-name="ico / 24 / other / book" transform="translate(4)">
    <rect id="Bounding_box" data-name="Bounding box" width="32" height="32" fill="rgba(255,255,255,0)"/>
    <path id="Icon_color" data-name="Icon color" d="M17.437,22H3.375A3.342,3.342,0,0,1,0,18.7V3.3A3.342,3.342,0,0,1,3.375,0h13.5A1.114,1.114,0,0,1,18,1.1V21.451A.557.557,0,0,1,17.437,22ZM3.375,17.6a1.1,1.1,0,1,0,0,2.2H15.75V17.6Zm.563-8.8a.557.557,0,0,0-.563.549v1.1A.557.557,0,0,0,3.938,11H9.562a.557.557,0,0,0,.563-.549V9.35A.557.557,0,0,0,9.562,8.8Zm0-4.4a.557.557,0,0,0-.563.55v1.1a.557.557,0,0,0,.563.55H14.062a.557.557,0,0,0,.562-.55V4.95a.557.557,0,0,0-.562-.55Z" transform="translate(7 5)" fill="#3e3e70"/>
  </g>
  <text id="Book" transform="translate(0 52)" font-size="17" font-family="Muli"><tspan x="0" y="0">Book</tspan></text>
</svg>
