<svg id="ico_24_payment_credit_card_add" data-name="ico / 24 / payment / credit_card_add" xmlns="http://www.w3.org/2000/svg" width="32" height="32" viewBox="0 0 32 32">
  <rect id="Bounding_box" data-name="Bounding box" width="32" height="32" fill="rgba(255,255,255,0)"/>
  <path id="Icon_color" data-name="Icon color" d="M25.5,26H3a3.136,3.136,0,0,1-3-3.25V4.874a3.136,3.136,0,0,1,3-3.25H18A7.1,7.1,0,0,1,22.47,0H22.5C26.636,0,30,3.645,30,8.126A8.526,8.526,0,0,1,28.5,13v9.75A3.136,3.136,0,0,1,25.5,26ZM3,14.625H3V22.75H25.5V15.567a6.872,6.872,0,0,1-3.017.7A7.076,7.076,0,0,1,18,14.625H3ZM18.75,6.7A.784.784,0,0,0,18,7.507V8.743a.784.784,0,0,0,.751.812h2.43v2.632A.784.784,0,0,0,21.93,13H23.07a.784.784,0,0,0,.749-.813V9.554h2.43A.784.784,0,0,0,27,8.743V7.507A.784.784,0,0,0,26.25,6.7H23.82V4.063a.784.784,0,0,0-.749-.813H21.93a.784.784,0,0,0-.749.813V6.7ZM3,4.874H3V9.75H15.15A9.659,9.659,0,0,1,15,8.126a8.54,8.54,0,0,1,.63-3.251H3Z" transform="translate(1 3)" fill="#3e3e70"/>
</svg>
