<svg xmlns="http://www.w3.org/2000/svg" width="17.969" height="20" viewBox="0 0 17.969 20">
  <g id="high-five" transform="translate(-1.016)">
    <path id="Path_57" data-name="Path 57" d="M18.963,9.676a.391.391,0,0,0-.235-.238,2.716,2.716,0,0,0-2.091.092l-.025.013L17.827,6.2a1.171,1.171,0,0,0-1.091-1.573l.157-.43a1.172,1.172,0,0,0-2.2-.8l-.156.43a1.173,1.173,0,0,0-1.846.5l-.157.43a1.171,1.171,0,0,0-1.846.5L10,7.147,9.314,5.263a1.171,1.171,0,0,0-1.846-.5l-.157-.43a1.173,1.173,0,0,0-1.846-.5L5.309,3.4a1.172,1.172,0,1,0-2.2.8l.157.43A1.171,1.171,0,0,0,2.173,6.2L3.389,9.541l-.025-.013a2.717,2.717,0,0,0-2.091-.092.391.391,0,0,0-.2.571l2.068,3.373a4.32,4.32,0,0,0,2.312,1.842l1.561,4.514A.391.391,0,0,0,7.384,20h5.232a.391.391,0,0,0,.369-.263l1.561-4.514a4.32,4.32,0,0,0,2.312-1.842l2.068-3.373a.39.39,0,0,0,.036-.333Zm-2.77,3.3a3.542,3.542,0,0,1-2.058,1.56.391.391,0,0,0-.263.248l-1.38,3.991L12.012,17.4a.391.391,0,1,0-.737.259l.547,1.56H7.662L6.127,14.781a.391.391,0,0,0-.263-.248,3.542,3.542,0,0,1-2.058-1.56L2.022,10.062a1.954,1.954,0,0,1,2.02,1.276h0l.267.733a.391.391,0,1,0,.734-.267L2.907,5.933a.391.391,0,1,1,.734-.267L4.977,9.336a.391.391,0,0,0,.734-.267L3.841,3.93a.39.39,0,0,1,.734-.267L6.445,8.8a.391.391,0,0,0,.734-.267c-.488-1.341-.854-2.346-1.336-3.671A.39.39,0,1,1,6.578,4.6L8.181,9a.391.391,0,1,0,.734-.267L7.846,5.8a.391.391,0,0,1,.734-.266L10.171,9.9a3.526,3.526,0,0,1-.355,3.142.391.391,0,0,0-.04.341l.335.956a.391.391,0,1,0,.737-.259l-.274-.78a4.3,4.3,0,0,0,.33-3.668l-.49-1.346,1-2.759a.391.391,0,0,1,.734.266v0L11.085,8.734A.391.391,0,0,0,11.819,9l1.6-4.4a.39.39,0,1,1,.734.267v0L12.821,8.535a.391.391,0,0,0,.734.267l1.871-5.139a.39.39,0,0,1,.734.267l-1.87,5.139a.391.391,0,0,0,.734.267l1.336-3.671a.391.391,0,1,1,.734.267l-2.138,5.873a.391.391,0,1,0,.734.267l.267-.734a1.956,1.956,0,0,1,2.021-1.277Z" fill="#3e3e70"/>
    <path id="Path_58" data-name="Path 58" d="M9.609,2.188a.391.391,0,0,0,.781,0V.391a.391.391,0,0,0-.781,0Z" fill="#3e3e70"/>
    <path id="Path_59" data-name="Path 59" d="M8.485,3.016a.391.391,0,0,0,0-.552l-1.1-1.1a.391.391,0,0,0-.552.552l1.1,1.1A.391.391,0,0,0,8.485,3.016Z" fill="#3e3e70"/>
    <path id="Path_60" data-name="Path 60" d="M12.068,3.016l1.1-1.1a.391.391,0,0,0-.552-.552l-1.1,1.1a.391.391,0,1,0,.552.552Z" fill="#3e3e70"/>
    <circle id="Ellipse_28" data-name="Ellipse 28" cx="0.391" cy="0.391" r="0.391" transform="translate(10.703 15.469)" fill="#3e3e70"/>
  </g>
</svg>
