<svg xmlns="http://www.w3.org/2000/svg" width="32" height="32" viewBox="0 0 32 32">
  <rect id="Bounding_box" data-name="Bounding box" width="32" height="32" rx="16" fill="#fdba13" opacity="0.3"/>
  <path id="Icon_color" data-name="Icon color" d="M5.583,20h-.4a4.424,4.424,0,0,1-3.145-1.3L1.3,17.967A4.417,4.417,0,0,1,0,14.833v-.388a4.474,4.474,0,0,1,1.311-3.156L4.444,8.145a1.5,1.5,0,0,1,2.112,0l.122.122a.558.558,0,0,1,0,.778l-3.8,3.822a2.238,2.238,0,0,0-.656,1.578v.377A2.238,2.238,0,0,0,2.878,16.4l.722.722a2.241,2.241,0,0,0,1.578.656h.389a2.207,2.207,0,0,0,1.577-.656l3.812-3.789a.556.556,0,0,1,.777,0l.123.123a1.5,1.5,0,0,1,0,2.111L8.689,18.733A4.417,4.417,0,0,1,5.583,20ZM7.45,13.887a.555.555,0,0,1-.394-.165l-.778-.777a.554.554,0,0,1,0-.789l5.878-5.878a.555.555,0,0,1,.788,0l.778.778a.554.554,0,0,1,0,.789L7.844,13.722A.555.555,0,0,1,7.45,13.887Zm7.05-1.6a1.492,1.492,0,0,1-1.056-.434l-.111-.123a.559.559,0,0,1,0-.777l3.823-3.823a2.238,2.238,0,0,0,.622-1.577V5.178A2.241,2.241,0,0,0,17.122,3.6L16.4,2.878a2.241,2.241,0,0,0-1.578-.656h-.378a2.237,2.237,0,0,0-1.577.656L9.044,6.667a.554.554,0,0,1-.777,0l-.123-.122a1.506,1.506,0,0,1,0-2.112l3.145-3.155A4.414,4.414,0,0,1,14.406,0h.416a4.424,4.424,0,0,1,3.145,1.3l.733.733A4.419,4.419,0,0,1,20,5.178v.378a4.472,4.472,0,0,1-1.311,3.155l-3.133,3.145A1.492,1.492,0,0,1,14.5,12.29Z" transform="translate(6 6)" fill="#fdba13"/>
</svg>
