<svg xmlns="http://www.w3.org/2000/svg" xmlns:xlink="http://www.w3.org/1999/xlink" width="22" height="22" viewBox="0 0 22 22">
  <defs>
    <clipPath id="clip-path">
      <rect id="Rectangle_748" data-name="Rectangle 748" width="22" height="22" transform="translate(1432 181)" fill="#3e3e70" stroke="#707070" stroke-width="1"/>
    </clipPath>
  </defs>
  <g id="Mask_Group_17" data-name="Mask Group 17" transform="translate(-1432 -181)" clip-path="url(#clip-path)">
    <g id="filter_1_" data-name="filter (1)" transform="translate(1432 181)">
      <path id="Path_47" data-name="Path 47" d="M18.064,0H3.936A3.94,3.94,0,0,0,0,3.936V18.064A3.94,3.94,0,0,0,3.936,22H18.064A3.94,3.94,0,0,0,22,18.064V3.936A3.94,3.94,0,0,0,18.064,0Zm2.647,18.064a2.65,2.65,0,0,1-2.647,2.647H3.936a2.65,2.65,0,0,1-2.647-2.647V3.936A2.65,2.65,0,0,1,3.936,1.289H18.064a2.65,2.65,0,0,1,2.647,2.647Z" fill="#3e3e70"/>
      <path id="Path_48" data-name="Path 48" d="M18.594,4.833H8.777a2.025,2.025,0,0,0-3.839,0H3.406a.645.645,0,0,0,0,1.289H4.938a2.025,2.025,0,0,0,3.839,0h9.817a.645.645,0,1,0,0-1.289ZM6.858,6.213a.736.736,0,1,1,.736-.736A.737.737,0,0,1,6.858,6.213Z" fill="#3e3e70"/>
      <path id="Path_49" data-name="Path 49" d="M18.594,10.355H17.062a2.025,2.025,0,0,0-3.839,0H3.406a.645.645,0,1,0,0,1.289h9.817a2.025,2.025,0,0,0,3.839,0h1.532a.645.645,0,1,0,0-1.289Zm-3.452,1.381A.736.736,0,1,1,15.878,11,.737.737,0,0,1,15.142,11.736Z" fill="#3e3e70"/>
      <path id="Path_50" data-name="Path 50" d="M18.594,15.878H11.539a2.025,2.025,0,0,0-3.839,0H3.406a.645.645,0,0,0,0,1.289H7.7a2.025,2.025,0,0,0,3.839,0h7.055a.645.645,0,1,0,0-1.289ZM9.619,17.259a.736.736,0,1,1,.736-.736A.737.737,0,0,1,9.619,17.259Z" fill="#3e3e70"/>
    </g>
  </g>
</svg>
