<svg id="ico_24_files_folder_opened" data-name="ico / 24 / files / folder_opened" xmlns="http://www.w3.org/2000/svg" width="24" height="24" viewBox="0 0 24 24">
  <rect id="Bounding_box" data-name="Bounding box" width="24" height="24" fill="rgba(255,255,255,0)"/>
  <path id="Icon_color" data-name="Icon color" d="M18,16H2a2,2,0,0,1-2-2V2A2,2,0,0,1,2,0H9.59a.993.993,0,0,1,.7.29l1.42,1.42a.994.994,0,0,0,.7.29H18a2,2,0,0,1,2,2V14A2,2,0,0,1,18,16ZM2,4V14H18V4Z" transform="translate(2 4)" fill="#3e3e70"/>
</svg>
