<svg id="ico_24_ui_share_vs" data-name="ico / 24 / ui / share_vs" xmlns="http://www.w3.org/2000/svg" width="38" height="38" viewBox="0 0 38 38">
  <rect id="Bounding_box" data-name="Bounding box" width="38" height="38" rx="6" fill="#1492e6" opacity="0.34"/>
  <path id="Icon_color" data-name="Icon color" d="M13.444,11.7c-5.768,0-11.609,2.52-12.22,5.783a.616.616,0,0,1-.6.517H.5a.553.553,0,0,1-.391-.164A.644.644,0,0,1,0,17.42,13.906,13.906,0,0,1,13.444,4.142V.892a.627.627,0,0,1,.183-.454l.244-.252a.6.6,0,0,1,.868,0l7.075,7.294a.618.618,0,0,1,0,.882l-7.075,7.294a.6.6,0,0,1-.868,0l-.244-.252a.627.627,0,0,1-.183-.454Z" transform="translate(8 10)" fill="#1492e6"/>
</svg>
