<svg id="Tab_1" data-name="Tab 1" xmlns="http://www.w3.org/2000/svg" width="45" height="37" viewBox="0 0 45 37">
  <text id="Label" transform="translate(0 24)" font-size="10" font-family="Muli-Bold, Muli" font-weight="700" letter-spacing="-0.024em"><tspan x="8.797" y="10">Home</tspan></text>
  <g id="ico_24_ui_home_outlined" data-name="ico / 24 / ui / home_outlined" transform="translate(10.5)">
    <rect id="Bounding_box" data-name="Bounding box" width="24" height="24" fill="rgba(255,255,255,0)"/>
    <path id="Icon_color" data-name="Icon color" d="M17,18H12a1,1,0,0,1-1-1V11.25a.25.25,0,0,0-.25-.25H7.25a.25.25,0,0,0-.25.25V17a1,1,0,0,1-1,1H1a1,1,0,0,1-1-1V9.24A2.981,2.981,0,0,1,.88,7.12L7.71.29A.993.993,0,0,1,8.41,0H9.59a.993.993,0,0,1,.7.29l6.83,6.83A2.981,2.981,0,0,1,18,9.24V17A1,1,0,0,1,17,18ZM6,9h6a1,1,0,0,1,1,1v6h3V9.24a.994.994,0,0,0-.29-.7L9.17,2H8.83L2.29,8.54a.994.994,0,0,0-.29.7V16H5V10A1,1,0,0,1,6,9Z" transform="translate(3 3)"/>
  </g>
</svg>
