<svg id="ico_24_social_media_tools_instagram" data-name="ico / 24 / social media &amp; tools / instagram" xmlns="http://www.w3.org/2000/svg" width="28" height="28" viewBox="0 0 28 28">
  <rect id="Bounding_box" data-name="Bounding box" width="28" height="28" rx="3" fill="#8a3ab9" opacity="0.27"/>
  <path id="Icon_color" data-name="Icon color" d="M13,18H5a5.006,5.006,0,0,1-5-5V5A5.006,5.006,0,0,1,5,0h8a5.006,5.006,0,0,1,5,5v8A5.006,5.006,0,0,1,13,18ZM5,1.75A3.271,3.271,0,0,0,1.75,5v8A3.271,3.271,0,0,0,5,16.25h8A3.271,3.271,0,0,0,16.25,13V5A3.271,3.271,0,0,0,13,1.75ZM9,13.5a4.5,4.5,0,0,1,0-9h.01a4.5,4.5,0,0,1-.01,9ZM9,6.25A2.75,2.75,0,1,0,11.75,9,2.754,2.754,0,0,0,9,6.25Zm4.75-1a1,1,0,1,1,1-1A1,1,0,0,1,13.75,5.25Z" transform="translate(5 5)" fill="#8a3ab9"/>
</svg>
