<svg id="ico_24_social_media_tools_linkedin_square" data-name="ico / 24 / social media &amp; tools / linkedin_square" xmlns="http://www.w3.org/2000/svg" width="24" height="24" viewBox="0 0 24 24">
  <rect id="Bounding_box" data-name="Bounding box" width="24" height="24" fill="rgba(255,255,255,0)"/>
  <path id="Icon_color" data-name="Icon color" d="M16,18H2a2,2,0,0,1-2-2V2A2,2,0,0,1,2,0H16a2,2,0,0,1,2,2V16A2,2,0,0,1,16,18ZM11,9.25a1.5,1.5,0,0,1,1.5,1.5V14.5a.5.5,0,0,0,.5.5h1.5a.5.5,0,0,0,.5-.5V9.9A3.092,3.092,0,0,0,12.28,6.76c-.091-.008-.182-.012-.273-.012A2.989,2.989,0,0,0,9.5,8.1V7.5A.5.5,0,0,0,9,7H7.5a.5.5,0,0,0-.5.5v7a.5.5,0,0,0,.5.5H9a.5.5,0,0,0,.5-.5V10.75A1.5,1.5,0,0,1,11,9.25ZM3.5,7a.5.5,0,0,0-.5.5v7a.5.5,0,0,0,.5.5H5a.5.5,0,0,0,.5-.5v-7A.5.5,0,0,0,5,7Zm.75-4a1.5,1.5,0,1,0,1.5,1.5A1.5,1.5,0,0,0,4.25,3Z" transform="translate(3 3)" fill="#fb7750"/>
</svg>
