<svg xmlns="http://www.w3.org/2000/svg" xmlns:xlink="http://www.w3.org/1999/xlink" width="32" height="32" viewBox="0 0 32 32">
  <defs>
    <clipPath id="clip-path">
      <rect id="Rectangle_683" data-name="Rectangle 683" width="21" height="21" transform="translate(5 5)" fill="#1492e6" stroke="#707070" stroke-width="1"/>
    </clipPath>
  </defs>
  <rect id="Rectangle_99" data-name="Rectangle 99" width="32" height="32" rx="10" fill="#66f" opacity="0.34"/>
  <g id="Mask_Group_15" data-name="Mask Group 15" transform="translate(1 1)" clip-path="url(#clip-path)">
    <g id="chat" transform="translate(5 5)">
      <path id="Path_40" data-name="Path 40" d="M5.6,8.575A1.4,1.4,0,1,0,7,9.975,1.4,1.4,0,0,0,5.6,8.575Zm0,2.1a.7.7,0,1,1,.7-.7A.7.7,0,0,1,5.6,10.675Z" fill="#1492e6"/>
      <path id="Path_41" data-name="Path 41" d="M10.5,8.575a1.4,1.4,0,1,0,1.4,1.4A1.4,1.4,0,0,0,10.5,8.575Zm0,2.1a.7.7,0,1,1,.7-.7A.7.7,0,0,1,10.5,10.675Z" fill="#1492e6"/>
      <path id="Path_42" data-name="Path 42" d="M15.4,8.575a1.4,1.4,0,1,0,1.4,1.4A1.4,1.4,0,0,0,15.4,8.575Zm0,2.1a.7.7,0,1,1,.7-.7A.7.7,0,0,1,15.4,10.675Z" fill="#1492e6"/>
      <path id="Path_43" data-name="Path 43" d="M10.5.525C4.71.525,0,4.764,0,9.975a8.736,8.736,0,0,0,1.669,5.111C1.462,17.374.908,19.073.1,19.878a.35.35,0,0,0,.247.6.328.328,0,0,0,.049,0A18.7,18.7,0,0,0,6.215,18.6a11.393,11.393,0,0,0,4.285.822c5.79,0,10.5-4.239,10.5-9.45S16.29.525,10.5.525Zm0,18.2a10.728,10.728,0,0,1-3.526-.588C8.4,17.246,8.4,17.183,8.4,16.976a.357.357,0,0,0-.172-.3.35.35,0,0,0-.468.1c-.192.152-1.016.681-1.755,1.137h0a16.38,16.38,0,0,1-4.833,1.708,11.366,11.366,0,0,0,1.2-4.606.352.352,0,0,0-.067-.237A8.056,8.056,0,0,1,.7,9.975c0-4.825,4.4-8.75,9.8-8.75s9.8,3.925,9.8,8.75S15.9,18.725,10.5,18.725Z" fill="#1492e6"/>
    </g>
  </g>
</svg>
