<svg id="Component_49" data-name="Component 49" xmlns="http://www.w3.org/2000/svg" width="49" height="49" viewBox="0 0 49 49">
  <circle id="Ellipse_4" data-name="Ellipse 4" cx="24.5" cy="24.5" r="24.5" fill="#fff" opacity="0.32"/>
  <g id="ico_24_arrows_chevron_right" data-name="ico / 24 / arrows / chevron_right" transform="translate(13 13)">
    <rect id="Bounding_box" data-name="Bounding box" width="24" height="24" fill="rgba(255,255,255,0)"/>
    <path id="Icon_color" data-name="Icon color" d="M10.06,7.92a1.126,1.126,0,0,1,.33.8v.57a1.156,1.156,0,0,1-.33.8l-7.709,7.7a.75.75,0,0,1-1.065,0L.222,16.713a.736.736,0,0,1,0-1.05L6.9,9,.222,2.338a.751.751,0,0,1,0-1.065L1.287.222a.75.75,0,0,1,1.065,0Z" transform="translate(6.805 3)"/>
  </g>
</svg>
