<svg xmlns="http://www.w3.org/2000/svg" width="32" height="32" viewBox="0 0 32 32">
  <rect id="Bounding_box" data-name="Bounding box" width="32" height="32" rx="16" fill="#fb7750" opacity="0.15"/>
  <path id="Icon_color" data-name="Icon color" d="M22,20.4a3.667,3.667,0,0,1-7.333,0,2.458,2.458,0,0,1,0-.3.608.608,0,0,0-.293-.576L6.38,14.948a.621.621,0,0,0-.66,0,3.585,3.585,0,1,1,0-5.9.621.621,0,0,0,.66,0l8.005-4.58a.608.608,0,0,0,.281-.552,2.458,2.458,0,0,1,0-.3A3.612,3.612,0,0,1,17.525.089a3.687,3.687,0,0,1,4.127,1.98,3.554,3.554,0,0,1-1.085,4.38,3.722,3.722,0,0,1-4.593-.1l-8.36,4.8a.608.608,0,0,0-.293.576,3.682,3.682,0,0,1,0,.6.608.608,0,0,0,.293.576l8.005,4.58a.621.621,0,0,0,.66,0A3.62,3.62,0,0,1,22,20.4Z" transform="translate(5 4)" fill="#fb7750"/>
</svg>
