<svg xmlns="http://www.w3.org/2000/svg" xmlns:xlink="http://www.w3.org/1999/xlink" width="22" height="24" viewBox="0 0 22 24">
  <defs>
    <clipPath id="clip-path">
      <rect id="Rectangle_94" data-name="Rectangle 94" width="22" height="24" transform="translate(212 410)" fill="#3e3e70" stroke="#707070" stroke-width="1"/>
    </clipPath>
  </defs>
  <g id="Mask_Group_7" data-name="Mask Group 7" transform="translate(-212 -410)" clip-path="url(#clip-path)">
    <g id="like" transform="translate(214 411.999)">
      <path id="Path_15" data-name="Path 15" d="M17.444,10.5c1.178-1.343.36-3.754-1.3-3.75h-5.03V3.77A3.056,3.056,0,0,0,8.348.5H7.483l-.5,4.172A7.219,7.219,0,0,1,5.824,7.185V6.124H0V20.5H5.824V18.947L8.892,20.5h7.256c1.656,0,2.473-2.407,1.3-3.75a2.483,2.483,0,0,0,0-3.125A2.483,2.483,0,0,0,17.444,10.5ZM4.765,19.249H1.059V7.374H4.765Zm11.384-8.125a.951.951,0,0,1,0,1.875H12.707v1.25h3.442a.951.951,0,0,1,0,1.875H12.707v1.25h3.442a.951.951,0,0,1,0,1.875H9.11L5.824,17.587V9.438c1.391-2.619,2.031-3.18,2.2-4.591L8.4,1.75A1.9,1.9,0,0,1,10.06,3.77V8h6.089a.951.951,0,0,1,0,1.875H12.707v1.25Z" transform="translate(0 -0.499)" fill="#3e3e70"/>
      <path id="Path_16" data-name="Path 16" d="M2.5,13.5H3.559v1.25H2.5Z" transform="translate(0.147 2.749)" fill="#3e3e70"/>
    </g>
  </g>
</svg>
 