<svg id="Component_41_1" data-name="Component 41 – 1" xmlns="http://www.w3.org/2000/svg" xmlns:xlink="http://www.w3.org/1999/xlink" width="32" height="32" viewBox="0 0 32 32">
  <defs>
    <clipPath id="clip-path">
      <rect id="Rectangle_96" data-name="Rectangle 96" width="24" height="24" transform="translate(174 341)" fill="#1492e6" stroke="#707070" stroke-width="1"/>
    </clipPath>
  </defs>
  <rect id="Rectangle_97" data-name="Rectangle 97" width="32" height="32" rx="10" fill="#66f" opacity="0.34"/>
  <g id="Mask_Group_9" data-name="Mask Group 9" transform="translate(-170 -337)" clip-path="url(#clip-path)">
    <path id="refer" d="M9.909,10.82c.067,0,.134,0,.2,0s.125,0,.187,0a8.647,8.647,0,0,1,4.035,1.1.787.787,0,0,0,1.074-.308.8.8,0,0,0-.306-1.083,10.159,10.159,0,0,0-1.775-.782,5.371,5.371,0,1,0-6.428,0,10.242,10.242,0,0,0-3.31,1.833,10.4,10.4,0,0,0-3.536,5.88,2.431,2.431,0,0,0,.488,2.026,2.377,2.377,0,0,0,1.857.89H8.57a.8.8,0,0,0,0-1.592H2.4a.8.8,0,0,1-.632-.3.836.836,0,0,1-.167-.7A8.745,8.745,0,0,1,9.909,10.82ZM6.319,5.412A3.791,3.791,0,1,1,10.3,9.228l-.188,0-.185,0A3.812,3.812,0,0,1,6.319,5.412Zm13.9,9.385A1.975,1.975,0,0,1,19.64,16.2l-1.469,1.472a.786.786,0,0,1-1.117,0,.8.8,0,0,1,0-1.125l.985-.987H13.566a1.611,1.611,0,0,0-.019,3.223.8.8,0,0,1,0,1.592,3.117,3.117,0,0,1-2.241-.941,3.215,3.215,0,0,1,2.261-5.465h4.4l-.911-.907a.8.8,0,0,1-.006-1.126.786.786,0,0,1,1.117-.006l1.467,1.462a1.975,1.975,0,0,1,.584,1.406Zm0,0" transform="translate(175.5 342.624)" fill="#1492e6"/>
  </g>
</svg>
