<svg id="ico_24_social_media_tools_youtube" data-name="ico / 24 / social media &amp; tools / youtube" xmlns="http://www.w3.org/2000/svg" width="44" height="44" viewBox="0 0 44 44">
  <rect id="Bounding_box" data-name="Bounding box" width="44" height="44" fill="rgba(255,255,255,0)"/>
  <path id="Icon_color" data-name="Icon color" d="M16.043,25.99a83.909,83.909,0,0,1-9.556-.548L4.364,25.2A5.306,5.306,0,0,1,0,19.658V6.334A5.3,5.3,0,0,1,4.364.793L6.4.548a83.528,83.528,0,0,1,19.112,0l2.125.244A5.3,5.3,0,0,1,32,6.334V19.658A5.305,5.305,0,0,1,27.636,25.2l-2.037.243A83.909,83.909,0,0,1,16.043,25.99ZM14.181,7.554a1,1,0,0,0-.51.141A1.246,1.246,0,0,0,13.09,8.77v8.45a1.239,1.239,0,0,0,.558,1,.993.993,0,0,0,1.058,0L20.363,14h.088a1.284,1.284,0,0,0,0-2.015L14.792,7.762A1.01,1.01,0,0,0,14.181,7.554Z" transform="translate(6 9.005)" fill="red"/>
</svg>
